<?xml version="1.0" encoding="UTF-8" standalone="no"?>
<svg
   width="64"
   height="64"
   version="1.1"
   id="svg16"
   sodipodi:docname="minecraft.svg"
   xml:space="preserve"
   xmlns:inkscape="http://www.inkscape.org/namespaces/inkscape"
   xmlns:sodipodi="http://sodipodi.sourceforge.net/DTD/sodipodi-0.dtd"
   xmlns:xlink="http://www.w3.org/1999/xlink"
   xmlns="http://www.w3.org/2000/svg"
   xmlns:svg="http://www.w3.org/2000/svg"><sodipodi:namedview
     id="namedview16"
     pagecolor="#ffffff"
     bordercolor="#000000"
     borderopacity="0.25"
     inkscape:showpageshadow="2"
     inkscape:pageopacity="0.0"
     inkscape:pagecheckerboard="0"
     inkscape:deskcolor="#d1d1d1" /><defs
     id="defs6"><linearGradient
       id="linearGradient862-3"
       x1="7.9373002"
       x2="7.9373002"
       y1="15.081"
       y2="1.852"
       gradientTransform="matrix(3.7795,0,0,3.7795,1.4309e-4,0.031541)"
       gradientUnits="userSpaceOnUse"><stop
         stop-color="#f1efeb"
         offset="0"
         id="stop5" /><stop
         stop-color="#fdfcfc"
         offset="1"
         id="stop6" /></linearGradient><linearGradient
       id="b"
       gradientTransform="matrix(0.07060919,0,0,0.06203303,10.325962,76.065907)"
       x1="88.595886"
       x2="536.59589"
       xlink:href="#a-2"
       y1="-449.39401"
       y2="-449.39401" /><linearGradient
       id="a-2"
       gradientUnits="userSpaceOnUse"><stop
         offset="0"
         stop-color="#63452c"
         id="stop1-6" /><stop
         offset="0.0384615"
         stop-color="#865e3c"
         id="stop2-1" /><stop
         offset="0.0768555"
         stop-color="#63452c"
         id="stop3-8" /><stop
         offset="0.923077"
         stop-color="#63452c"
         id="stop4-7" /><stop
         offset="0.961538"
         stop-color="#865e3c"
         id="stop5-9" /><stop
         offset="1"
         stop-color="#63452c"
         id="stop6-2" /></linearGradient><linearGradient
       id="c"
       gradientTransform="matrix(0.07060919,0,0,0.03802031,10.325962,58.58318)"
       x1="88.595886"
       x2="536.59589"
       xlink:href="#a-2"
       y1="-449.39401"
       y2="-449.39401" /><linearGradient
       id="e-0"
       gradientTransform="matrix(0.07060919,0,0,0.06203303,10.325962,82.240476)"
       x1="87.541862"
       x2="535.26111"
       xlink:href="#d"
       y1="-591.63672"
       y2="-591.63672" /><linearGradient
       id="d"
       gradientUnits="userSpaceOnUse"><stop
         offset="0"
         stop-color="#3d3846"
         id="stop13" /><stop
         offset="0.0384615"
         stop-color="#c0bfbc"
         id="stop14" /><stop
         offset="0.0768555"
         stop-color="#77767b"
         id="stop15" /><stop
         offset="0.163635"
         stop-color="#cbcbcd"
         id="stop16" /><stop
         offset="0.923077"
         stop-color="#5f5e63"
         id="stop17" /><stop
         offset="0.961538"
         stop-color="#9a9996"
         id="stop18" /><stop
         offset="1"
         stop-color="#3d3846"
         id="stop19" /></linearGradient><radialGradient
       id="f-2"
       cx="58.126461"
       cy="294.37967"
       gradientTransform="matrix(0.49636033,0,0,0.41960128,1.759906,-76.369091)"
       gradientUnits="userSpaceOnUse"
       r="52"><stop
         offset="0"
         stop-color="#deddda"
         id="stop20" /><stop
         offset="1"
         stop-color="#deddda"
         stop-opacity="0"
         id="stop21" /></radialGradient><linearGradient
       id="g"
       gradientUnits="userSpaceOnUse"
       x1="29.999731"
       x2="103.99973"
       y1="94.000244"
       y2="108.00024"
       gradientTransform="matrix(0.30416249,0,0,0.30416249,12.931694,12.297481)"><stop
         offset="0"
         stop-color="#f6f5f4"
         id="stop22" /><stop
         offset="1"
         stop-color="#deddda"
         id="stop23" /></linearGradient><radialGradient
       id="h"
       cx="105.22436"
       cy="148.6301"
       gradientTransform="matrix(-0.10386754,-0.05651674,-0.00855275,0.0852753,44.454239,41.489525)"
       gradientUnits="userSpaceOnUse"
       r="160"><stop
         offset="0"
         stop-color="#e0371b"
         id="stop24" /><stop
         offset="1"
         stop-color="#f6d32d"
         id="stop25" /></radialGradient><radialGradient
       id="i"
       cx="352.97995"
       cy="275.93033"
       gradientTransform="matrix(0.09100785,0.03420824,0.02191503,-0.05575694,-1.186699,26.911106)"
       gradientUnits="userSpaceOnUse"
       r="192"><stop
         offset="0"
         stop-color="#50db81"
         id="stop26" /><stop
         offset="1"
         stop-color="#8ff0a4"
         stop-opacity="0.004149"
         id="stop27" /></radialGradient><radialGradient
       id="j"
       cx="527.62366"
       cy="194.65071"
       gradientTransform="matrix(-0.04590207,-0.05674607,-0.05889985,0.04764432,81.449795,55.800686)"
       gradientUnits="userSpaceOnUse"
       r="192"><stop
         offset="0"
         stop-color="#4a86cf"
         id="stop28" /><stop
         offset="1"
         stop-color="#87bae1"
         stop-opacity="0"
         id="stop29" /></radialGradient><linearGradient
       id="k"
       gradientTransform="matrix(0.06999813,0,0,0.06149496,10.51678,81.786942)"
       x1="87.541862"
       x2="535.26111"
       xlink:href="#d"
       y1="-591.63672"
       y2="-591.63672" /><linearGradient
       id="l"
       gradientUnits="userSpaceOnUse"
       x1="52.549931"
       x2="56.978603"
       y1="103.61853"
       y2="57.048904"
       gradientTransform="matrix(0.30416249,0,0,0.30416249,12.931694,12.297481)"><stop
         offset="0"
         stop-color="#9b9a96"
         id="stop44" /><stop
         offset="1"
         stop-color="#c0bfbc"
         id="stop45" /></linearGradient><linearGradient
       id="n"
       gradientTransform="matrix(-0.13662585,0.33496189,0.33496189,0.13662585,-32.552256,-29.790471)"
       x1="49.325035"
       x2="53.604832"
       xlink:href="#m"
       y1="222.74658"
       y2="230.15941" /><linearGradient
       id="m"
       gradientUnits="userSpaceOnUse"><stop
         offset="0"
         stop-color="#b1b0b6"
         id="stop46" /><stop
         offset="0.5"
         stop-color="#d8d7d6"
         id="stop47" /><stop
         offset="1"
         stop-color="#6f667f"
         id="stop48" /></linearGradient><linearGradient
       id="o"
       gradientTransform="matrix(0.91294463,0,0,-0.91294463,-26.033178,-162.08675)"
       gradientUnits="userSpaceOnUse"
       x1="58"
       x2="70"
       y1="-211"
       y2="-211"><stop
         offset="0"
         stop-color="#77767b"
         id="stop49" /><stop
         offset="0.5"
         stop-color="#9a9996"
         id="stop50" /><stop
         offset="1"
         stop-color="#77767b"
         id="stop51" /></linearGradient><linearGradient
       id="p"
       gradientUnits="userSpaceOnUse"
       x1="56.854656"
       x2="71.126801"
       y1="46.093487"
       y2="46.093487"
       gradientTransform="matrix(0.30416249,0,0,0.30416249,12.931694,12.297481)"><stop
         offset="0"
         stop-color="#5e5c64"
         id="stop52" /><stop
         offset="0.5"
         stop-color="#c0bfbc"
         id="stop53" /><stop
         offset="1"
         stop-color="#3d3846"
         id="stop54" /></linearGradient><linearGradient
       id="r"
       gradientTransform="matrix(-0.22334013,0.28457896,0.28457896,0.22334013,-15.918336,-45.643098)"
       x1="60.999699"
       x2="67.000298"
       xlink:href="#q"
       y1="220"
       y2="220" /><linearGradient
       id="q"
       gradientUnits="userSpaceOnUse"><stop
         offset="0"
         stop-color="#b1b0b6"
         id="stop55" /><stop
         offset="0.271815"
         stop-color="#c0c0be"
         id="stop56" /><stop
         offset="1"
         stop-color="#6f667f"
         id="stop57" /></linearGradient><linearGradient
       id="s"
       gradientTransform="matrix(0.72349976,0,0,-0.72349976,-13.908719,-130.50099)"
       gradientUnits="userSpaceOnUse"
       x1="58"
       x2="70"
       y1="-211"
       y2="-211"><stop
         offset="0"
         stop-color="#77767b"
         id="stop58" /><stop
         offset="0.5"
         stop-color="#c0bfbc"
         id="stop59" /><stop
         offset="1"
         stop-color="#77767b"
         id="stop60" /></linearGradient><radialGradient
       id="t"
       cx="-203.36652"
       cy="-63.487907"
       gradientTransform="matrix(0,-0.36175414,-0.36175414,0,9.242911,-50.19335)"
       gradientUnits="userSpaceOnUse"
       r="11.999864"><stop
         offset="0"
         stop-color="#f0f0f0"
         id="stop61" /><stop
         offset="1"
         stop-color="#9a999a"
         id="stop62" /></radialGradient><linearGradient
       id="u"
       gradientTransform="matrix(-0.22334013,0.28457896,0.28457896,0.22334013,-15.918336,-46.112007)"
       x1="60.999699"
       x2="67.000298"
       xlink:href="#q"
       y1="220"
       y2="220" /><linearGradient
       id="v"
       gradientTransform="matrix(-0.13662585,0.33496189,0.33496189,0.13662585,-32.552256,-30.061392)"
       x1="49.325035"
       x2="53.604832"
       xlink:href="#m"
       y1="222.74658"
       y2="230.15941" /><radialGradient
       id="w"
       cx="96.054092"
       cy="219.44914"
       gradientTransform="matrix(-0.75519562,0,0,0.82491635,94.517893,-151.46823)"
       gradientUnits="userSpaceOnUse"
       r="2.415031"><stop
         offset="0"
         stop-color="#cfcecd"
         id="stop69" /><stop
         offset="1"
         stop-color="#827b8f"
         id="stop70" /></radialGradient><radialGradient
       id="x"
       cx="96.741417"
       cy="219.74495"
       gradientTransform="matrix(0.71643558,0,0,0.78257754,-26.000091,-142.20479)"
       gradientUnits="userSpaceOnUse"
       r="2.415031"><stop
         offset="0"
         stop-color="#92918f"
         id="stop71" /><stop
         offset="1"
         stop-color="#524d5b"
         id="stop72" /></radialGradient><linearGradient
       inkscape:collect="always"
       xlink:href="#d"
       id="linearGradient17"
       gradientTransform="matrix(0.07060919,0,0,0.06203303,10.325962,82.240476)"
       x1="87.541862"
       y1="-591.63672"
       x2="535.26111"
       y2="-591.63672" /></defs><g
     transform="scale(3.7796)"
     shape-rendering="auto"
     id="g11"><path
       d="m 4.3693,0.52916 c -2.1142,0 -3.8402,1.7835 -3.8402,3.9682 v 8.4675 c 0,2.1846 1.726,3.9682 3.8402,3.9682 h 8.1944 c 2.1142,0 3.8402,-1.7835 3.8402,-3.9682 v -8.4675 c 0,-2.1846 -1.726,-3.9682 -3.8402,-3.9682 z m 0.25704,0.52089 h 7.6808 c 1.8443,0 3.3291,1.5342 3.3291,3.44 v 7.9368 c 0,1.9058 -1.4847,3.44 -3.3291,3.44 h -7.6808 c -1.8443,0 -3.3291,-1.5342 -3.3291,-3.44 v -7.9368 c 0,-1.9058 1.4847,-3.44 3.3291,-3.44 z"
       color="#000000"
       color-rendering="auto"
       dominant-baseline="auto"
       image-rendering="auto"
       opacity="0.01"
       solid-color="#000000"
       stop-color="#000000"
       style="font-variant-ligatures:normal;font-variant-position:normal;font-variant-caps:normal;font-variant-numeric:normal;font-variant-alternates:normal;font-variant-east-asian:normal;font-feature-settings:normal;font-variation-settings:normal;text-indent:0;text-decoration-line:none;text-decoration-style:solid;text-decoration-color:#000000;text-transform:none;text-orientation:mixed;white-space:normal;shape-padding:0;shape-margin:0;inline-size:0;isolation:auto;mix-blend-mode:normal"
       id="path6" /><path
       d="m 4.3587,0.79373 c -1.9668,0 -3.5639,1.6528 -3.5639,3.6876 v 8.4996 c 0,2.0348 1.5971,3.6876 3.5639,3.6876 h 8.2162 c 1.9668,0 3.5644,-1.6528 3.5644,-3.6876 v -8.4996 c 0,-2.0348 -1.5976,-3.6876 -3.5644,-3.6876 z m 0.27222,0.25631 h 7.6718 c 1.8422,0 3.3251,1.5342 3.3251,3.44 v 7.9368 c 0,1.9058 -1.483,3.44 -3.3251,3.44 h -7.6718 c -1.8422,0 -3.3251,-1.5342 -3.3251,-3.44 v -7.9368 c 0,-1.9058 1.483,-3.44 3.3251,-3.44 z"
       color="#000000"
       color-rendering="auto"
       dominant-baseline="auto"
       image-rendering="auto"
       opacity="0.01"
       solid-color="#000000"
       stop-color="#000000"
       style="font-variant-ligatures:normal;font-variant-position:normal;font-variant-caps:normal;font-variant-numeric:normal;font-variant-alternates:normal;font-variant-east-asian:normal;font-feature-settings:normal;font-variation-settings:normal;text-indent:0;text-decoration-line:none;text-decoration-style:solid;text-decoration-color:#000000;text-transform:none;text-orientation:mixed;white-space:normal;shape-padding:0;shape-margin:0;inline-size:0;isolation:auto;mix-blend-mode:normal"
       id="path7" /><g
       id="g10"><path
         d="m 4.3097,1.0583 c -1.8657,0 -3.3751,1.5383 -3.3751,3.439 v 8.4675 c 0,1.9007 1.57,3.439 3.4357,3.439 h 8.1996 c 1.8657,0 3.4274,-1.5383 3.4274,-3.439 V 4.4973 c 0,-1.9007 -1.51,-3.439 -3.3756,-3.439 h -0.09688 c 1.794,0.086515 3.2138,1.5819 3.2138,3.4318 v 7.9368 c 0,1.9058 -1.5059,3.44 -3.3766,3.44 h -7.7905 c -1.8707,0 -3.3766,-1.5342 -3.3766,-3.44 V 4.4901 c 0,-1.8498 1.4199,-3.3451 3.2138,-3.4318 z"
         color="#000000"
         color-rendering="auto"
         dominant-baseline="auto"
         image-rendering="auto"
         opacity="0.03"
         solid-color="#000000"
         stop-color="#000000"
         style="font-variant-ligatures:normal;font-variant-position:normal;font-variant-caps:normal;font-variant-numeric:normal;font-variant-alternates:normal;font-variant-east-asian:normal;font-feature-settings:normal;font-variation-settings:normal;text-indent:0;text-decoration-line:none;text-decoration-style:solid;text-decoration-color:#000000;text-transform:none;text-orientation:mixed;white-space:normal;shape-padding:0;shape-margin:0;inline-size:0;isolation:auto;mix-blend-mode:normal"
         id="path8" /><path
         transform="scale(0.26458)"
         d="m 4,46.969 v 2.0312 c 0,6.6479 5.8957,12 12.544,12 h 30.961 c 6.6479,0 12.495,-5.3521 12.495,-12 V 47.008 C 59.97883,54.1929 54.19,59.971 47,59.971 H 17.002 C 9.7988,59.971 4,54.1723 4,46.969 Z"
         color="#000000"
         color-rendering="auto"
         dominant-baseline="auto"
         image-rendering="auto"
         opacity="0.03"
         solid-color="#000000"
         stop-color="#000000"
         style="font-variant-ligatures:normal;font-variant-position:normal;font-variant-caps:normal;font-variant-numeric:normal;font-variant-alternates:normal;font-variant-east-asian:normal;font-feature-settings:normal;font-variation-settings:normal;text-indent:0;text-decoration-line:none;text-decoration-style:solid;text-decoration-color:#000000;text-transform:none;text-orientation:mixed;white-space:normal;shape-padding:0;shape-margin:0;inline-size:0;isolation:auto;mix-blend-mode:normal"
         id="path9" /><path
         d="m 1.0583,11.906 v 0.59234 c 0,1.9386 1.5729,3.4993 3.3318,3.4993 h 8.1603 c 1.7589,0 3.3243,-1.5608 3.3243,-3.4993 v -0.58095 c -0.0056,2.0952 -1.5372,3.7801 -3.4395,3.7801 H 4.4984 c -1.9058,0 -3.44,-1.691 -3.44,-3.7915 z"
         color="#000000"
         color-rendering="auto"
         dominant-baseline="auto"
         image-rendering="auto"
         opacity="0.05"
         solid-color="#000000"
         stop-color="#000000"
         style="font-variant-ligatures:normal;font-variant-position:normal;font-variant-caps:normal;font-variant-numeric:normal;font-variant-alternates:normal;font-variant-east-asian:normal;font-feature-settings:normal;font-variation-settings:normal;text-indent:0;text-decoration-line:none;text-decoration-style:solid;text-decoration-color:#000000;text-transform:none;text-orientation:mixed;white-space:normal;shape-padding:0;shape-margin:0;inline-size:0;isolation:auto;mix-blend-mode:normal"
         id="path10" /></g></g><rect
     x="4"
     y="4"
     width="56"
     height="56"
     rx="13.002"
     ry="13.002"
     fill="url(#linearGradient862-3)"
     stroke-width="3.7795"
     id="rect11"
     style="fill:url(#linearGradient862-3)" /><path
     d="m 19.014943,29.33058 h 26.766299 c 1.343781,0 2.4333,1.089519 2.4333,2.4333 v 13.991474 c 0,1.343781 -1.089519,2.4333 -2.4333,2.4333 H 19.014943 c -1.34378,0 -2.4333,-1.089519 -2.4333,-2.4333 V 31.76388 c 0,-1.343781 1.08952,-2.4333 2.4333,-2.4333 z m 0,0"
     fill="url(#b)"
     id="path46"
     style="fill:url(#b);stroke-width:0.304163" /><path
     d="M 19.014943,21.422355 H 45.781242 V 41.49708 H 19.014943 Z m 0,0"
     fill="#f6f5f4"
     id="path47"
     style="stroke-width:0.304163" /><path
     d="m 19.014943,29.938905 h 26.766299 c 1.343781,0 2.4333,1.089519 2.4333,2.4333 v 6.691575 c 0,1.34378 -1.089519,2.4333 -2.4333,2.4333 H 19.014943 c -1.34378,0 -2.4333,-1.08952 -2.4333,-2.4333 v -6.691575 c 0,-1.343781 1.08952,-2.4333 2.4333,-2.4333 z m 0,0"
     fill="url(#c)"
     id="path48"
     style="fill:url(#c);stroke-width:0.304163" /><path
     d="m 19.014943,29.938905 h 26.766299 c 1.343781,0 2.4333,1.089519 2.4333,2.4333 v 13.991474 c 0,1.343781 -1.089519,2.4333 -2.4333,2.4333 H 19.014943 c -1.34378,0 -2.4333,-1.089519 -2.4333,-2.4333 V 32.372205 c 0,-1.343781 1.08952,-2.4333 2.4333,-2.4333 z m 0,0"
     fill="url(#e)"
     id="path49"
     style="fill:url(#linearGradient17);stroke-width:0.304163" /><path
     d="m 19.456929,20.838981 h 25.882329 c 1.587348,0 2.875284,1.08952 2.875284,2.4333 v 21.874748 c 0,1.343781 -1.287936,2.4333 -2.875284,2.4333 H 19.456929 c -1.587348,0 -2.875286,-1.089519 -2.875286,-2.4333 V 23.272281 c 0,-1.34378 1.287938,-2.4333 2.875286,-2.4333 z m 0,0"
     fill="url(#f)"
     id="path50"
     style="fill:url(#f-2);stroke-width:0.304163" /><path
     d="m 19.456929,20.230656 h 25.882329 c 1.587348,0 2.875284,1.08952 2.875284,2.4333 v 21.874749 c 0,1.34378 -1.287936,2.433299 -2.875284,2.433299 H 19.456929 c -1.587348,0 -2.875286,-1.089519 -2.875286,-2.433299 V 22.663956 c 0,-1.34378 1.287938,-2.4333 2.875286,-2.4333 z m 0,0"
     fill="#5e5c64"
     id="path51"
     style="stroke-width:0.304163" /><path
     d="M 19.014943,31.76388 H 45.781242 V 45.755354 H 19.014943 Z m 0,0"
     fill="url(#g)"
     id="path52"
     style="fill:url(#g);stroke-width:0.304163" /><path
     d="m 45.781242,44.538705 -0.04158,1.216649 H 19.051781 l -0.03683,-1.216649 z m 0,0"
     fill-opacity="0.137255"
     id="path53"
     style="stroke-width:0.304163" /><path
     d="M 45.687381,44.833362 H 23.860157 l 21.669202,0.312478 c 0,0 0.158022,-0.235248 0.158022,-0.312478 z m 0,0"
     fill="#f6f5f4"
     fill-opacity="0.597768"
     id="path54"
     style="stroke-width:0.304163" /><path
     d="M 45.408169,45.295546 H 23.324308 l 21.676329,0.311292 c 0.168716,-0.08792 0.344561,-0.191291 0.407532,-0.311292 z m 0,0"
     fill-opacity="0.171349"
     id="path55"
     style="stroke-width:0.304163" /><path
     d="M 21.988845,32.818944 37.87777,19.96689 c 0.733079,-0.594067 1.794083,-0.4907 2.37627,0.230498 l 6.589396,8.144664 -1.018233,8.896753 -12.247293,9.906666 c -0.734267,0.594069 -1.794083,0.4907 -2.377457,-0.229308 L 21.716762,35.191649 c -0.582186,-0.721198 -0.462185,-1.778638 0.272083,-2.372705 z m 0,0"
     fill="#f6f5f4"
     id="path56"
     style="stroke-width:0.304163" /><path
     d="m 46.86007,28.36225 -3.641634,2.945386 c -0.73308,0.59288 -0.854269,1.651508 -0.270895,2.372705 l 2.877662,3.558464 z m 0,0"
     fill="#deddda"
     id="path57"
     style="stroke-width:0.304163" /><path
     d="m 23.051037,34.131832 9.474186,11.712633 12.247292,-9.906668 -1.824974,-2.257456 c -0.583374,-0.721197 -0.462185,-1.779825 0.270895,-2.372705 L 45.5353,29.433948 38.939962,21.278591 Z m 0,0"
     fill="url(#h)"
     id="path58"
     style="fill:url(#h);stroke-width:0.304163" /><path
     d="m 23.051037,34.131832 9.474186,11.712633 12.247292,-9.906668 -1.824974,-2.257456 c -0.583374,-0.721197 -0.462185,-1.779825 0.270895,-2.372705 L 45.5353,29.433948 38.939962,21.278591 Z m 0,0"
     fill="url(#i)"
     id="path59"
     style="fill:url(#i);stroke-width:0.304163" /><path
     d="m 23.051037,34.131832 9.474186,11.712633 12.247292,-9.906668 -1.824974,-2.257456 c -0.583374,-0.721197 -0.462185,-1.779825 0.270895,-2.372705 L 45.5353,29.433948 38.939962,21.278591 Z m 0,0"
     fill="url(#j)"
     id="path60"
     style="fill:url(#j);stroke-width:0.304163" /><path
     d="M 38.437382,43.168784 49.035544,32.793993 c 0.237627,-0.231687 0.367133,-0.552483 0.357628,-0.883972 -0.0083,-0.33149 -0.154457,-0.64397 -0.403964,-0.863774 l -2.800437,-2.460628 z m 0,0"
     fill="#f6f5f4"
     id="path61"
     style="stroke-width:0.304163" /><path
     d="m 19.020884,31.863683 h 26.787684 c 1.343781,0 2.4333,1.08952 2.4333,2.4333 v 6.609594 c 0,1.34378 -1.089519,2.433298 -2.4333,2.433298 H 19.020884 c -1.343781,0 -2.4333,-1.089518 -2.4333,-2.433298 v -6.609594 c 0,-1.34378 1.089519,-2.4333 2.4333,-2.4333 z m 0,0"
     fill="url(#e)"
     id="path62"
     style="fill:url(#e-0);stroke-width:0.304163" /><path
     d="m 19.569802,17.903101 h 25.61975 c 1.588534,0 2.875285,1.089519 2.875285,2.4333 v 19.272733 c 0,1.343781 -1.286751,2.4333 -2.875285,2.4333 h -25.61975 c -1.587348,0 -2.875286,-1.089519 -2.875286,-2.4333 V 20.336401 c 0,-1.343781 1.287938,-2.4333 2.875286,-2.4333 z m 0,0"
     fill="url(#k)"
     stroke="#9a9996"
     id="path63"
     style="fill:url(#k);stroke-width:0.304163" /><path
     d="m 19.433167,17.16408 h 25.893021 c 1.588534,0 2.876474,1.08952 2.876474,2.4333 v 19.484222 c 0,1.34378 -1.28794,2.4333 -2.876474,2.4333 H 19.433167 c -1.588536,0 -2.875286,-1.08952 -2.875286,-2.4333 V 19.59738 c 0,-1.34378 1.28675,-2.4333 2.875286,-2.4333 z m 0,0"
     fill="url(#l)"
     id="path64"
     style="fill:url(#l);stroke-width:0.304163" /><path
     d="m 30.101435,23.046557 12.58235,-9.325671"
     fill="#77767b"
     stroke="url(#n)"
     stroke-linecap="round"
     stroke-width="2.4333"
     id="path65"
     style="stroke:url(#n)" /><path
     d="m 32.395717,23.354262 c -3.02618,0 -5.47849,2.453499 -5.47849,5.478489 v 1.712103 c 0,3.024991 2.45231,5.477301 5.47849,5.477301 3.02499,0 5.477301,-2.45231 5.477301,-5.477301 v -1.712103 c 0,-3.02499 -2.452311,-5.478489 -5.477301,-5.478489 z m 0,0"
     fill="url(#o)"
     id="path66"
     style="fill:url(#o);stroke-width:0.304163" /><path
     d="m 32.395717,23.43862 c -2.889544,0 -5.231358,2.341813 -5.231358,5.230169 0,2.889544 2.341814,5.231357 5.231358,5.231357 2.888355,0 5.230169,-2.341813 5.230169,-5.231357 0,-2.888356 -2.341814,-5.230169 -5.230169,-5.230169 z m 0,0"
     fill="#deddda"
     id="path67"
     style="stroke-width:0.304163" /><path
     d="m 30.586187,21.795429 -0.361193,0.723575 0.361193,0.723574 -0.361193,0.723574 0.361193,0.723574 -0.361193,0.723574 0.361193,0.723574 -0.361193,0.723574 0.361193,0.723574 -0.361193,0.723574 v 0.361193 c 0,0.775852 0.413471,1.492297 1.084767,1.879629 0.671296,0.387332 1.499426,0.387332 2.170723,0 0.671296,-0.387332 1.084766,-1.103777 1.084766,-1.879629 V 27.584022 L 34.204058,26.860448 34.56525,26.136874 34.204058,25.4133 34.56525,24.689726 34.204058,23.966152 34.56525,23.242578 34.204058,22.519004 34.56525,21.795429 34.204058,21.071855 Z m 0,0"
     fill="url(#p)"
     id="path68"
     style="fill:url(#p);stroke-width:0.304163" /><path
     d="m 34.204058,22.519004 c 0,0 -0.489512,1.322394 -1.776262,1.453088 -1.287938,0.130695 -1.841609,-0.729514 -1.841609,-0.729514 l -0.361193,0.723574 c 0,0 0.756842,1.00635 2.202802,0.923181 1.444772,-0.08436 2.093494,-1.632498 2.137454,-1.646755 z m 0,0"
     fill="#ffffff"
     fill-opacity="0.38189"
     id="path69"
     style="stroke-width:0.304163" /><path
     d="m 34.56525,23.242578 c -0.04396,0.01426 -0.692682,1.562397 -2.137454,1.646755 -1.44596,0.08317 -2.202802,-0.923181 -2.202802,-0.923181 l 0.361193,0.723574 c 0,0 0.553671,0.859021 1.841609,0.729515 1.28675,-0.130695 1.776262,-1.453089 1.776262,-1.453089 l 0.01544,0.03089 z m 0,0"
     fill="#241f31"
     fill-opacity="0.338583"
     id="path70"
     style="stroke-width:0.304163" /><g
     fill="#ffffff"
     fill-opacity="0.38189"
     id="g73"
     transform="matrix(0.30416249,0,0,0.30416249,12.931693,12.297481)"><path
       d="m 69.9375,43.121094 c 0,0 -1.609375,4.347656 -5.839844,4.777344 C 59.863281,48.324219 58.042969,45.5 58.042969,45.5 l -1.1875,2.378906 c 0,0 2.488281,3.308594 7.242187,3.03125 4.75,-0.277344 6.882813,-5.363281 7.027344,-5.410156 z m 0,0"
       id="path71" /><path
       d="m 69.9375,47.878906 c 0,0 -1.714844,4.347656 -5.945312,4.777344 -4.234376,0.425781 -5.949219,-2.398438 -5.949219,-2.398438 l -1.1875,2.378907 c 0,0 2.382812,3.308593 7.136719,3.03125 4.75,-0.277344 6.988281,-5.367188 7.132812,-5.410157 z m 0,0"
       id="path72" /><path
       d="m 69.9375,38.363281 c 0,0 -1.609375,4.347657 -5.839844,4.777344 -4.234375,0.425781 -6.054687,-2.398437 -6.054687,-2.398437 l -1.1875,2.378906 c 0,0 2.488281,3.308594 7.242187,3.03125 4.75,-0.273438 6.882813,-5.363282 7.027344,-5.410156 z m 0,0"
       id="path73" /></g><path
     d="m 34.56525,26.136874 c -0.04396,0.01426 -0.692682,1.562397 -2.137454,1.645566 -1.44596,0.08436 -2.202802,-0.921992 -2.202802,-0.921992 l 0.361193,0.723574 c 0,0 0.553671,0.859021 1.841609,0.728327 1.28675,-0.129507 1.776262,-1.451901 1.776262,-1.451901 l 0.01544,0.03089 z m 0,0"
     fill="#241f31"
     fill-opacity="0.338583"
     id="path74"
     style="stroke-width:0.304163" /><path
     d="m 34.56525,24.689726 c -0.04396,0.01426 -0.692682,1.562397 -2.137454,1.645566 -1.44596,0.08436 -2.202802,-0.921992 -2.202802,-0.921992 l 0.361193,0.723574 c 0,0 0.553671,0.859021 1.841609,0.728326 1.28675,-0.129506 1.776262,-1.4519 1.776262,-1.4519 l 0.01544,0.03089 z m 0,0"
     fill="#241f31"
     fill-opacity="0.338583"
     id="path75"
     style="stroke-width:0.304163" /><path
     d="M 34.205253,22.971706 22.150435,13.665042"
     fill="#77767b"
     stroke="url(#r)"
     stroke-linecap="round"
     stroke-width="2.4333"
     id="path76"
     style="stroke:url(#r)" /><path
     d="m 36.735973,22.157811 c 0,-2.397656 -1.943789,-4.341445 -4.340256,-4.341445 -2.397656,0 -4.341445,1.943789 -4.341445,4.341445 0,2.397655 1.943789,4.340256 4.341445,4.340256 2.396467,0 4.340256,-1.942601 4.340256,-4.340256 z m 0,0"
     fill="url(#s)"
     id="path77"
     style="fill:url(#s);stroke-width:0.304163" /><path
     d="m 32.395717,15.645643 c -2.397656,0 -4.341445,1.94379 -4.341445,4.341446 0,2.397655 1.943789,4.341444 4.341445,4.341444 2.396467,0 4.340256,-1.943789 4.340256,-4.341444 0,-2.397656 -1.943789,-4.341446 -4.340256,-4.341446 z m 0,0"
     fill="url(#t)"
     id="path78"
     style="fill:url(#t);stroke-width:0.304163" /><path
     d="m 28.061401,21.942758 c -0.0036,0.07129 -0.0059,0.142577 -0.0071,0.215053 0,2.397655 1.943788,4.340256 4.341444,4.340256 2.396468,0 4.340256,-1.942601 4.340256,-4.340256 -0.0012,-0.0499 -0.0036,-0.09862 -0.0071,-0.147329 -0.114061,2.310922 -2.019829,4.125204 -4.333127,4.126392 -2.338249,-0.0036 -4.25471,-1.857055 -4.334315,-4.194116 z m 0,0"
     fill="#77767b"
     id="path79"
     style="stroke-width:0.304163" /><path
     d="m 32.395717,15.645643 c -2.072107,0 -3.75213,1.680024 -3.75213,3.752131 0,2.072107 1.680023,3.752129 3.75213,3.752129 2.072107,0 3.750941,-1.680022 3.750941,-3.752129 0,-2.072107 -1.678834,-3.752131 -3.750941,-3.752131 z m 0,0"
     fill="#c0bfbc"
     id="path80"
     style="stroke-width:0.304163" /><path
     d="m 42.639824,29.275948 -6.436128,-5.05076"
     fill="#77767b"
     stroke="url(#u)"
     stroke-linecap="round"
     stroke-width="2.4333"
     id="path81"
     style="stroke:url(#u)" /><path
     d="M 22.106474,29.417337 28.569928,24.40222"
     fill="#77767b"
     stroke="url(#v)"
     stroke-linecap="round"
     stroke-width="2.4333"
     id="path82"
     style="stroke:url(#v)" /><path
     d="m 20.88982,29.511177 c 0,0.620206 0.502581,1.122787 1.123975,1.122787 0.354065,0 0.685554,-0.451491 0.685554,-0.851893 0,-0.620206 -0.503769,-1.123975 -1.123975,-1.123975 -0.342183,0 -0.685554,0.35644 -0.685554,0.853081 z m 0,0"
     fill="url(#w)"
     id="path83"
     style="fill:url(#w);stroke-width:0.304163" /><path
     d="m 43.849336,29.321075 c 0,0.679613 -0.551295,1.229719 -1.22972,1.229719 -0.38852,0 -0.750901,-0.493076 -0.750901,-0.932686 0,-0.679612 0.551294,-1.229719 1.229719,-1.229719 0.374264,0 0.750902,0.389708 0.750902,0.932686 z m 0,0"
     fill="#9c98a2"
     id="path84"
     style="stroke-width:0.304163" /><path
     d="m 43.849336,29.485037 c 0,0.589315 -0.477629,1.065757 -1.065758,1.065757 -0.336242,0 -0.651098,-0.427728 -0.651098,-0.807931 0,-0.589315 0.477631,-1.065757 1.066946,-1.065757 0.324362,0 0.64991,0.33743 0.64991,0.807931 z m 0,0"
     fill="url(#x)"
     id="path85"
     style="fill:url(#x);stroke-width:0.304163" /><path
     d="m 28.319226,43.348194 0.602384,0.848328 h 8.299122 l 1.038429,-0.878032 z m 0,0"
     fill-opacity="0.224585"
     id="path86"
     style="stroke-width:0.304163" /></svg>
