<?xml version="1.0" encoding="UTF-8" standalone="no"?>
<svg
   width="64"
   height="64"
   version="1.1"
   id="svg16"
   sodipodi:docname="com.belmoussaoui.Authenticator.svg"
   xml:space="preserve"
   inkscape:export-filename="com.belmoussaoui.Authenticator.svg"
   inkscape:export-xdpi="96"
   inkscape:export-ydpi="96"
   xmlns:inkscape="http://www.inkscape.org/namespaces/inkscape"
   xmlns:sodipodi="http://sodipodi.sourceforge.net/DTD/sodipodi-0.dtd"
   xmlns:xlink="http://www.w3.org/1999/xlink"
   xmlns="http://www.w3.org/2000/svg"
   xmlns:svg="http://www.w3.org/2000/svg"><sodipodi:namedview
     id="namedview16"
     pagecolor="#ffffff"
     bordercolor="#000000"
     borderopacity="0.25"
     inkscape:showpageshadow="2"
     inkscape:pageopacity="0.0"
     inkscape:pagecheckerboard="0"
     inkscape:deskcolor="#d1d1d1" /><defs
     id="defs6"><linearGradient
       id="linearGradient862-3"
       x1="7.9373002"
       x2="7.9373002"
       y1="15.081"
       y2="1.852"
       gradientTransform="matrix(3.7795,0,0,3.7795,1.4309e-4,0.031541)"
       gradientUnits="userSpaceOnUse"><stop
         stop-color="#f1efeb"
         offset="0"
         id="stop5" /><stop
         stop-color="#fdfcfc"
         offset="1"
         id="stop6" /></linearGradient><linearGradient
       id="e"
       x1="62"
       x2="92"
       xlink:href="#a"
       y1="210"
       y2="210"
       inkscape:collect="always"
       gradientTransform="matrix(0.3616698,0,0,0.3616698,8.8022266,-54.352885)" /><linearGradient
       id="a"
       gradientUnits="userSpaceOnUse"
       inkscape:collect="always"><stop
         offset="0"
         stop-color="#77767b"
         id="stop1" /><stop
         offset="0.73333335"
         stop-color="#9a9996"
         id="stop2" /><stop
         offset="0.83333331"
         stop-color="#f6f5f4"
         id="stop3" /><stop
         offset="0.93333334"
         stop-color="#adacaa"
         id="stop4" /><stop
         offset="1"
         stop-color="#77767b"
         id="stop5-3" /></linearGradient><radialGradient
       id="h-5"
       cx="-85.993149"
       cy="248.08337"
       gradientTransform="matrix(0.37739459,-1.8083491e-8,2.1700188e-8,0.37739459,64.402438,-58.284103)"
       gradientUnits="userSpaceOnUse"
       r="46"
       inkscape:collect="always"><stop
         offset="0"
         stop-color="#c0bfbc"
         id="stop16-6" /><stop
         offset="0.87407935"
         stop-color="#deddda"
         id="stop17-2" /><stop
         offset="0.91666663"
         stop-color="#b1b0ad"
         id="stop18-9" /><stop
         offset="1"
         stop-color="#77767b"
         id="stop19-1" /></radialGradient><linearGradient
       id="f"
       gradientUnits="userSpaceOnUse"
       x1="-131.24692"
       x2="-147.81134"
       y1="188.45129"
       y2="250.27055"
       inkscape:collect="always"
       gradientTransform="matrix(0.36166982,0,0,0.36166982,93.640108,-105.85274)"><stop
         offset="0"
         stop-color="#241f31"
         id="stop20-2" /><stop
         offset="1"
         stop-color="#3d3846"
         id="stop21-7" /></linearGradient><filter
       id="c-0"
       color-interpolation-filters="sRGB"
       height="1.12"
       width="1.12"
       x="-0.060000002"
       y="-0.060000002"><feGaussianBlur
         stdDeviation="1.2"
         id="feGaussianBlur7" /></filter><linearGradient
       id="d-9"
       gradientUnits="userSpaceOnUse"
       x1="64"
       x2="64"
       y1="240"
       y2="256"
       inkscape:collect="always"
       gradientTransform="matrix(0.3616698,0,0,0.3616698,8.8022266,-54.352885)"><stop
         offset="0"
         stop-color="#f2f2f2"
         id="stop22-3" /><stop
         offset="1"
         stop-color="#808080"
         stop-opacity="0.8"
         id="stop23-6" /></linearGradient><radialGradient
       id="g-0"
       cx="63.999992"
       cy="210.77495"
       gradientTransform="matrix(0.767349,0.00553784,-0.00541257,0.74999257,16.030502,44.565936)"
       r="36"
       xlink:href="#a"
       inkscape:collect="always" /></defs><g
     transform="scale(3.7796)"
     shape-rendering="auto"
     id="g11"><path
       d="m 4.3693,0.52916 c -2.1142,0 -3.8402,1.7835 -3.8402,3.9682 v 8.4675 c 0,2.1846 1.726,3.9682 3.8402,3.9682 h 8.1944 c 2.1142,0 3.8402,-1.7835 3.8402,-3.9682 v -8.4675 c 0,-2.1846 -1.726,-3.9682 -3.8402,-3.9682 z m 0.25704,0.52089 h 7.6808 c 1.8443,0 3.3291,1.5342 3.3291,3.44 v 7.9368 c 0,1.9058 -1.4847,3.44 -3.3291,3.44 h -7.6808 c -1.8443,0 -3.3291,-1.5342 -3.3291,-3.44 v -7.9368 c 0,-1.9058 1.4847,-3.44 3.3291,-3.44 z"
       color="#000000"
       color-rendering="auto"
       dominant-baseline="auto"
       image-rendering="auto"
       opacity="0.01"
       solid-color="#000000"
       stop-color="#000000"
       style="font-variant-ligatures:normal;font-variant-position:normal;font-variant-caps:normal;font-variant-numeric:normal;font-variant-alternates:normal;font-variant-east-asian:normal;font-feature-settings:normal;font-variation-settings:normal;text-indent:0;text-decoration-line:none;text-decoration-style:solid;text-decoration-color:#000000;text-transform:none;text-orientation:mixed;white-space:normal;shape-padding:0;shape-margin:0;inline-size:0;isolation:auto;mix-blend-mode:normal"
       id="path6" /><path
       d="m 4.3587,0.79373 c -1.9668,0 -3.5639,1.6528 -3.5639,3.6876 v 8.4996 c 0,2.0348 1.5971,3.6876 3.5639,3.6876 h 8.2162 c 1.9668,0 3.5644,-1.6528 3.5644,-3.6876 v -8.4996 c 0,-2.0348 -1.5976,-3.6876 -3.5644,-3.6876 z m 0.27222,0.25631 h 7.6718 c 1.8422,0 3.3251,1.5342 3.3251,3.44 v 7.9368 c 0,1.9058 -1.483,3.44 -3.3251,3.44 h -7.6718 c -1.8422,0 -3.3251,-1.5342 -3.3251,-3.44 v -7.9368 c 0,-1.9058 1.483,-3.44 3.3251,-3.44 z"
       color="#000000"
       color-rendering="auto"
       dominant-baseline="auto"
       image-rendering="auto"
       opacity="0.01"
       solid-color="#000000"
       stop-color="#000000"
       style="font-variant-ligatures:normal;font-variant-position:normal;font-variant-caps:normal;font-variant-numeric:normal;font-variant-alternates:normal;font-variant-east-asian:normal;font-feature-settings:normal;font-variation-settings:normal;text-indent:0;text-decoration-line:none;text-decoration-style:solid;text-decoration-color:#000000;text-transform:none;text-orientation:mixed;white-space:normal;shape-padding:0;shape-margin:0;inline-size:0;isolation:auto;mix-blend-mode:normal"
       id="path7" /><g
       id="g10"><path
         d="m 4.3097,1.0583 c -1.8657,0 -3.3751,1.5383 -3.3751,3.439 v 8.4675 c 0,1.9007 1.57,3.439 3.4357,3.439 h 8.1996 c 1.8657,0 3.4274,-1.5383 3.4274,-3.439 V 4.4973 c 0,-1.9007 -1.51,-3.439 -3.3756,-3.439 h -0.09688 c 1.794,0.086515 3.2138,1.5819 3.2138,3.4318 v 7.9368 c 0,1.9058 -1.5059,3.44 -3.3766,3.44 h -7.7905 c -1.8707,0 -3.3766,-1.5342 -3.3766,-3.44 V 4.4901 c 0,-1.8498 1.4199,-3.3451 3.2138,-3.4318 z"
         color="#000000"
         color-rendering="auto"
         dominant-baseline="auto"
         image-rendering="auto"
         opacity="0.03"
         solid-color="#000000"
         stop-color="#000000"
         style="font-variant-ligatures:normal;font-variant-position:normal;font-variant-caps:normal;font-variant-numeric:normal;font-variant-alternates:normal;font-variant-east-asian:normal;font-feature-settings:normal;font-variation-settings:normal;text-indent:0;text-decoration-line:none;text-decoration-style:solid;text-decoration-color:#000000;text-transform:none;text-orientation:mixed;white-space:normal;shape-padding:0;shape-margin:0;inline-size:0;isolation:auto;mix-blend-mode:normal"
         id="path8" /><path
         transform="scale(0.26458)"
         d="m 4,46.969 v 2.0312 c 0,6.6479 5.8957,12 12.544,12 h 30.961 c 6.6479,0 12.495,-5.3521 12.495,-12 V 47.008 C 59.97883,54.1929 54.19,59.971 47,59.971 H 17.002 C 9.7988,59.971 4,54.1723 4,46.969 Z"
         color="#000000"
         color-rendering="auto"
         dominant-baseline="auto"
         image-rendering="auto"
         opacity="0.03"
         solid-color="#000000"
         stop-color="#000000"
         style="font-variant-ligatures:normal;font-variant-position:normal;font-variant-caps:normal;font-variant-numeric:normal;font-variant-alternates:normal;font-variant-east-asian:normal;font-feature-settings:normal;font-variation-settings:normal;text-indent:0;text-decoration-line:none;text-decoration-style:solid;text-decoration-color:#000000;text-transform:none;text-orientation:mixed;white-space:normal;shape-padding:0;shape-margin:0;inline-size:0;isolation:auto;mix-blend-mode:normal"
         id="path9" /><path
         d="m 1.0583,11.906 v 0.59234 c 0,1.9386 1.5729,3.4993 3.3318,3.4993 h 8.1603 c 1.7589,0 3.3243,-1.5608 3.3243,-3.4993 v -0.58095 c -0.0056,2.0952 -1.5372,3.7801 -3.4395,3.7801 H 4.4984 c -1.9058,0 -3.44,-1.691 -3.44,-3.7915 z"
         color="#000000"
         color-rendering="auto"
         dominant-baseline="auto"
         image-rendering="auto"
         opacity="0.05"
         solid-color="#000000"
         stop-color="#000000"
         style="font-variant-ligatures:normal;font-variant-position:normal;font-variant-caps:normal;font-variant-numeric:normal;font-variant-alternates:normal;font-variant-east-asian:normal;font-feature-settings:normal;font-variation-settings:normal;text-indent:0;text-decoration-line:none;text-decoration-style:solid;text-decoration-color:#000000;text-transform:none;text-orientation:mixed;white-space:normal;shape-padding:0;shape-margin:0;inline-size:0;isolation:auto;mix-blend-mode:normal"
         id="path10" /></g></g><rect
     x="4"
     y="4"
     width="56"
     height="56"
     rx="13.002"
     ry="13.002"
     fill="url(#linearGradient862-3)"
     stroke-width="3.7795"
     id="rect11"
     style="fill:url(#linearGradient862-3)" /><use
     height="100%"
     transform="matrix(-1,0,0,1,63.898188,-1.9e-7)"
     width="100%"
     xlink:href="#i-7"
     id="use32"
     x="0"
     y="0" /><rect
     id="i-7"
     fill="url(#e)"
     height="5.7867169"
     width="2.8933585"
     x="39.182487"
     y="19.427755"
     style="fill:url(#e);stroke-width:0.36167" /><circle
     cx="31.949095"
     cy="36.787918"
     fill="#5e5c64"
     r="16.63681"
     id="circle33"
     style="stroke-width:0.36167" /><circle
     cx="31.949095"
     cy="36.064575"
     fill="url(#h)"
     r="16.63681"
     id="circle34"
     style="fill:url(#h-5);stroke-width:0.36167" /><circle
     cx="31.949095"
     cy="36.064575"
     fill="#f6f5f4"
     r="15.19013"
     id="circle35"
     style="stroke-width:0.36167" /><circle
     cx="36.064575"
     cy="-31.949095"
     fill="#241f31"
     r="13.743452"
     transform="rotate(90)"
     id="circle36"
     style="stroke-width:0.36167" /><circle
     cx="40.194572"
     cy="-26.566381"
     fill="url(#f)"
     r="13.020115"
     transform="matrix(0.96592583,0.25881905,0.25881905,-0.96592583,0,0)"
     id="circle37"
     style="fill:url(#f);stroke-width:0.36167" /><g
     enable-background="new"
     fill-rule="evenodd"
     transform="matrix(0.3616698,0,0,0.3616698,8.8022243,-55.437889)"
     id="g39"><path
       d="m 527.04,1123.5 -24,48 h 48 z"
       fill="#1a1a1a"
       fill-opacity="0.4"
       filter="url(#c)"
       transform="matrix(0.24993183,0,0,0.24993183,-67.725837,-48.782593)"
       inkscape:connector-curvature="0"
       id="path37"
       style="filter:url(#c-0)" /><path
       d="m 64.000005,231 -6,12 h 12 z"
       fill="#ed333b"
       inkscape:connector-curvature="0"
       sodipodi:nodetypes="cccc"
       id="path38" /><path
       d="M 63.998369,231.00327 58.000005,243 h 5.998364 z"
       fill="#ffffff"
       fill-opacity="0.373444"
       stroke-width="0.249932"
       inkscape:connector-curvature="0"
       sodipodi:nodetypes="cccc"
       id="path39" /></g><circle
     cx="31.949095"
     cy="36.787918"
     opacity="0.2"
     r="4.3400378"
     id="circle39"
     style="stroke-width:0.36167" /><circle
     cx="31.949095"
     cy="36.064575"
     fill="url(#d)"
     r="4.3400378"
     id="circle40"
     style="fill:url(#d-9);stroke-width:0.36167" /><circle
     cx="31.949095"
     cy="-35.702904"
     fill="#cccccc"
     r="3.9783673"
     transform="scale(1,-1)"
     id="circle41"
     style="stroke-width:0.36167" /><g
     fill="none"
     id="g73"
     transform="matrix(0.3616698,0,0,0.3616698,8.8022266,-54.352885)"><g
       enable-background="new"
       stroke="#f6f5f4"
       stroke-width="2"
       transform="matrix(1,0,0,-1,0,500.00001)"
       id="g48"><path
         d="M 64,216.00001 V 222"
         sodipodi:nodetypes="cc"
         inkscape:connector-curvature="0"
         id="path41" /><path
         d="M 64,278.00001 V 284"
         inkscape:connector-curvature="0"
         sodipodi:nodetypes="cc"
         id="path42" /><path
         d="M 97.99999,250 H 92"
         inkscape:connector-curvature="0"
         sodipodi:nodetypes="cc"
         id="path43" /><path
         d="M 35.99999,250 H 30"
         sodipodi:nodetypes="cc"
         inkscape:connector-curvature="0"
         id="path44" /><path
         d="m 39.958375,225.95837 4.242634,4.24264"
         inkscape:connector-curvature="0"
         sodipodi:nodetypes="cc"
         id="path45" /><path
         d="m 83.798995,269.79899 4.242634,4.24264"
         sodipodi:nodetypes="cc"
         inkscape:connector-curvature="0"
         id="path46" /><path
         d="m 88.041622,225.95837 -4.242634,4.24264"
         sodipodi:nodetypes="cc"
         inkscape:connector-curvature="0"
         id="path47" /><path
         d="m 44.201002,269.79899 -4.242634,4.24264"
         inkscape:connector-curvature="0"
         sodipodi:nodetypes="cc"
         id="path48" /></g><g
       enable-background="new"
       opacity="0.2"
       stroke="#ffffff"
       id="g72"><path
         d="m 57.366929,283.3467 0.780359,-3.92313"
         inkscape:connector-curvature="0"
         sodipodi:nodetypes="cc"
         id="path49" /><path
         d="m 69.85271,220.57644 0.780359,-3.92313"
         sodipodi:nodetypes="cc"
         inkscape:connector-curvature="0"
         id="path50" /><path
         d="m 97.346688,256.63308 -3.923132,-0.78036"
         sodipodi:nodetypes="cc"
         inkscape:connector-curvature="0"
         id="path51" /><path
         d="m 34.57643,244.1473 -3.923132,-0.78036"
         inkscape:connector-curvature="0"
         sodipodi:nodetypes="cc"
         id="path52" /><path
         d="m 35.730037,268.8894 3.325872,-2.22229"
         sodipodi:nodetypes="cc"
         inkscape:connector-curvature="0"
         id="path53" /><path
         d="m 88.944091,233.33291 3.325872,-2.22229"
         inkscape:connector-curvature="0"
         sodipodi:nodetypes="cc"
         id="path54" /><path
         d="M 82.889378,278.26998 80.667104,274.9441"
         inkscape:connector-curvature="0"
         sodipodi:nodetypes="cc"
         id="path55" /><path
         d="m 47.332882,225.05592 -2.222273,-3.32588"
         sodipodi:nodetypes="cc"
         inkscape:connector-curvature="0"
         id="path56" /><path
         d="m 50.988763,281.41191 1.53073,-3.69551"
         sodipodi:nodetypes="cc"
         inkscape:connector-curvature="0"
         id="path57" /><path
         d="m 75.480503,222.28362 1.530729,-3.69551"
         inkscape:connector-curvature="0"
         sodipodi:nodetypes="cc"
         id="path58" /><path
         d="m 95.411891,263.01124 -3.695509,-1.53073"
         inkscape:connector-curvature="0"
         sodipodi:nodetypes="cc"
         id="path59" /><path
         d="m 36.283601,238.5195 -3.695509,-1.53073"
         sodipodi:nodetypes="cc"
         inkscape:connector-curvature="0"
         id="path60" /><path
         d="m 32.588097,263.01125 3.695513,-1.53074"
         inkscape:connector-curvature="0"
         sodipodi:nodetypes="cc"
         id="path61" /><path
         d="m 91.716386,238.51951 3.695512,-1.53074"
         sodipodi:nodetypes="cc"
         inkscape:connector-curvature="0"
         id="path62" /><path
         d="m 77.011225,281.41191 -1.530726,-3.69552"
         sodipodi:nodetypes="cc"
         inkscape:connector-curvature="0"
         id="path63" /><path
         d="m 52.519484,222.28363 -1.530727,-3.69552"
         inkscape:connector-curvature="0"
         sodipodi:nodetypes="cc"
         id="path64" /><path
         d="m 45.110611,278.26997 2.222276,-3.32587"
         inkscape:connector-curvature="0"
         sodipodi:nodetypes="cc"
         id="path65" /><path
         d="m 80.667106,225.05591 2.222276,-3.32587"
         sodipodi:nodetypes="cc"
         inkscape:connector-curvature="0"
         id="path66" /><path
         d="m 92.269952,268.88939 -3.32587,-2.22227"
         sodipodi:nodetypes="cc"
         inkscape:connector-curvature="0"
         id="path67" /><path
         d="m 39.055897,233.3329 -3.32587,-2.22228"
         inkscape:connector-curvature="0"
         sodipodi:nodetypes="cc"
         id="path68" /><path
         d="m 30.653299,256.63308 3.923137,-0.78036"
         sodipodi:nodetypes="cc"
         inkscape:connector-curvature="0"
         id="path69" /><path
         d="m 93.423555,244.14731 3.923137,-0.78037"
         inkscape:connector-curvature="0"
         sodipodi:nodetypes="cc"
         id="path70" /><path
         d="m 70.633058,283.34671 -0.780354,-3.92314"
         inkscape:connector-curvature="0"
         sodipodi:nodetypes="cc"
         id="path71" /><path
         d="m 58.147275,220.57645 -0.780354,-3.92314"
         sodipodi:nodetypes="cc"
         inkscape:connector-curvature="0"
         id="path72" /></g><path
       d="m 40,204 a 24.000001,24.000001 0 0 1 24.000001,-24 24.000001,24.000001 0 0 1 24,24"
       stroke="url(#g)"
       stroke-linejoin="round"
       stroke-width="8"
       inkscape:connector-curvature="0"
       id="path73"
       style="stroke:url(#g-0)" /></g></svg>
