<?xml version="1.0" encoding="UTF-8"?>
<svg xmlns="http://www.w3.org/2000/svg" xmlns:xlink="http://www.w3.org/1999/xlink" width="128px" height="128px" viewBox="0 0 128 128" version="1.1">
<defs>
<filter id="alpha" filterUnits="objectBoundingBox" x="0%" y="0%" width="100%" height="100%">
  <feColorMatrix type="matrix" in="SourceGraphic" values="0 0 0 0 1 0 0 0 0 1 0 0 0 0 1 0 0 0 1 0"/>
</filter>
<mask id="mask0">
  <g filter="url(#alpha)">
<rect x="0" y="0" width="128" height="128" style="fill:rgb(0%,0%,0%);fill-opacity:0.568627;stroke:none;"/>
  </g>
</mask>
<linearGradient id="linear0" gradientUnits="userSpaceOnUse" x1="-34.619274" y1="5.904643" x2="-34.619274" y2="8.589253" gradientTransform="matrix(2,0,0,2,143.818328,4.602186)">
<stop offset="0" style="stop-color:rgb(100%,100%,100%);stop-opacity:1;"/>
<stop offset="1" style="stop-color:rgb(74.901961%,77.647059%,86.27451%);stop-opacity:0;"/>
</linearGradient>
<clipPath id="clip1">
  <rect x="0" y="0" width="128" height="128"/>
</clipPath>
<g id="surface5" clip-path="url(#clip1)">
<path style=" stroke:none;fill-rule:nonzero;fill:url(#linear0);" d="M 14.703125 14.617188 C 12.816406 14.617188 11.300781 16.136719 11.300781 18.019531 L 25.132812 105.25 C 25.132812 112.695312 31.125 118.683594 38.570312 118.683594 L 86.863281 118.683594 C 94.304688 118.683594 100.300781 112.695312 100.300781 105.25 L 114.132812 18.019531 C 114.132812 16.136719 112.613281 14.617188 110.730469 14.617188 Z M 14.703125 14.617188 "/>
</g>
<radialGradient id="radial0" gradientUnits="userSpaceOnUse" cx="-40.551296" cy="24.290535" fx="-40.551296" fy="24.290535" r="25.708008" gradientTransform="matrix(0.331276,0,0,0.406912,81.344422,67.724184)">
<stop offset="0" style="stop-color:rgb(74.509804%,76.862745%,85.882353%);stop-opacity:0;"/>
<stop offset="1" style="stop-color:rgb(100%,100%,100%);stop-opacity:0.6;"/>
</radialGradient>
<mask id="mask1">
  <g filter="url(#alpha)">
<rect x="0" y="0" width="128" height="128" style="fill:rgb(0%,0%,0%);fill-opacity:0.568627;stroke:none;"/>
  </g>
</mask>
<linearGradient id="linear1" gradientUnits="userSpaceOnUse" x1="-34.619274" y1="5.904643" x2="-34.619274" y2="8.589253" gradientTransform="matrix(0.331276,0,0,0.331276,81.344422,70.443196)">
<stop offset="0" style="stop-color:rgb(100%,100%,100%);stop-opacity:1;"/>
<stop offset="1" style="stop-color:rgb(74.901961%,77.647059%,86.27451%);stop-opacity:0;"/>
</linearGradient>
<clipPath id="clip2">
  <rect x="0" y="0" width="128" height="128"/>
</clipPath>
<g id="surface8" clip-path="url(#clip2)">
<path style=" stroke:none;fill-rule:nonzero;fill:url(#linear1);" d="M 59.957031 72.101562 C 59.644531 72.101562 59.394531 72.355469 59.394531 72.664062 L 61.683594 87.113281 C 61.683594 88.347656 62.679688 89.339844 63.910156 89.339844 L 71.910156 89.339844 C 73.144531 89.339844 74.136719 88.347656 74.136719 87.113281 L 76.425781 72.664062 C 76.425781 72.355469 76.175781 72.101562 75.863281 72.101562 Z M 59.957031 72.101562 "/>
</g>
<linearGradient id="linear2" gradientUnits="userSpaceOnUse" x1="42.694286" y1="33.899948" x2="18.435099" y2="33.899948" gradientTransform="matrix(0.341427,0,0,0.321427,57.431812,69.82466)">
<stop offset="0" style="stop-color:rgb(60.784314%,68.627451%,1.176471%);stop-opacity:1;"/>
<stop offset="0.45365" style="stop-color:rgb(30.980392%,41.568627%,0%);stop-opacity:1;"/>
<stop offset="1" style="stop-color:rgb(65.490196%,73.333333%,0%);stop-opacity:1;"/>
</linearGradient>
<radialGradient id="radial1" gradientUnits="userSpaceOnUse" cx="-40.551296" cy="28.676498" fx="-40.551296" fy="28.676498" r="25.708008" gradientTransform="matrix(2,0,0,2.098598,143.818328,-3.116332)">
<stop offset="0" style="stop-color:rgb(74.509804%,76.862745%,85.882353%);stop-opacity:0;"/>
<stop offset="1" style="stop-color:rgb(100%,100%,100%);stop-opacity:0.478431;"/>
</radialGradient>
</defs>
<g id="surface1">
<use xlink:href="#surface5" mask="url(#mask0)"/>
<path style=" stroke:none;fill-rule:nonzero;fill:rgb(74.117647%,77.254902%,85.882353%);fill-opacity:0.807843;" d="M 14.703125 14.617188 C 12.816406 14.617188 11.300781 16.136719 11.300781 18.019531 L 25.132812 105.25 C 25.132812 112.695312 31.125 118.683594 38.570312 118.683594 L 86.863281 118.683594 C 94.304688 118.683594 100.300781 112.695312 100.300781 105.25 L 114.132812 18.019531 C 114.132812 16.136719 112.613281 14.617188 110.730469 14.617188 Z M 14.703125 14.617188 "/>
<path style=" stroke:none;fill-rule:nonzero;fill:rgb(74.117647%,77.254902%,85.882353%);fill-opacity:0.807843;" d="M 59.957031 72.101562 C 59.644531 72.101562 59.394531 72.355469 59.394531 72.664062 L 61.683594 87.113281 C 61.683594 88.347656 62.679688 89.339844 63.910156 89.339844 L 71.910156 89.339844 C 73.144531 89.339844 74.136719 88.347656 74.136719 87.113281 L 76.425781 72.664062 C 76.425781 72.355469 76.175781 72.101562 75.863281 72.101562 Z M 59.957031 72.101562 "/>
<path style=" stroke:none;fill-rule:nonzero;fill:rgb(42.352941%,46.27451%,24.705882%);fill-opacity:1;" d="M 30.917969 74.367188 C 28.375 74.328125 25.894531 75.835938 24.71875 78.394531 L 21.859375 84.613281 L 25.132812 105.25 C 25.132812 109.179688 26.8125 112.691406 29.484375 115.144531 L 36.957031 118.582031 C 37.488281 118.644531 38.023438 118.683594 38.570312 118.683594 L 80.679688 118.683594 L 86.207031 106.660156 C 87.777344 103.246094 86.414062 99.289062 83.15625 97.792969 L 33.433594 74.9375 C 32.617188 74.5625 31.765625 74.378906 30.917969 74.367188 Z M 30.917969 74.367188 "/>
<path style=" stroke:none;fill-rule:nonzero;fill:url(#radial0);" d="M 59.957031 72.101562 C 59.644531 72.101562 59.394531 72.355469 59.394531 72.664062 L 61.683594 87.113281 C 61.683594 88.347656 62.679688 89.339844 63.910156 89.339844 L 71.910156 89.339844 C 73.144531 89.339844 74.136719 88.347656 74.136719 87.113281 L 76.425781 72.664062 C 76.425781 72.355469 76.175781 72.101562 75.863281 72.101562 Z M 59.957031 72.101562 "/>
<use xlink:href="#surface8" mask="url(#mask1)"/>
<path style=" stroke:none;fill-rule:nonzero;fill:url(#linear2);" d="M 68.09375 77.902344 C 67.167969 76.039062 66.191406 77.539062 66.191406 77.539062 L 65.453125 78.820312 L 66.976562 79.6875 Z M 71.386719 77.332031 L 70.566406 77.785156 L 70.265625 77.269531 C 70.265625 77.269531 70.03125 76.730469 68.886719 76.785156 C 68.886719 76.785156 67.464844 76.824219 67.320312 76.796875 C 67.320312 76.796875 67.722656 76.875 67.921875 77.179688 L 68.828125 78.746094 L 68.164062 79.109375 L 70.386719 79.15625 Z M 65.933594 81.84375 C 64.785156 83.585938 66.609375 83.621094 66.609375 83.621094 L 68.109375 83.570312 L 68.082031 81.851562 Z M 63.726562 79.398438 L 64.550781 79.847656 L 64.25 80.367188 C 64.25 80.367188 63.902344 80.84375 64.546875 81.765625 C 64.546875 81.765625 65.320312 82.929688 65.371094 83.066406 C 65.371094 83.066406 65.230469 82.691406 65.390625 82.367188 L 66.292969 80.796875 L 66.957031 81.160156 L 65.839844 79.28125 Z M 70.664062 81.585938 C 72.78125 81.714844 71.921875 80.148438 71.921875 80.148438 L 71.148438 78.890625 L 69.625 79.757812 Z M 68.414062 82.917969 L 69.550781 81.050781 L 69.550781 81.796875 L 71.394531 81.796875 C 71.765625 81.773438 72.03125 81.46875 72.03125 81.46875 C 71.933594 81.582031 71.269531 82.808594 71.269531 82.808594 C 70.757812 83.808594 70.160156 83.742188 70.160156 83.742188 L 69.550781 83.742188 L 69.550781 84.660156 Z M 68.414062 82.917969 "/>
<path style=" stroke:none;fill-rule:nonzero;fill:rgb(67.843137%,74.117647%,41.568627%);fill-opacity:1;" d="M 51.761719 59.570312 C 49.238281 59.511719 46.816406 60.941406 45.714844 63.394531 L 26.019531 107.246094 C 25.8125 107.710938 25.675781 108.183594 25.582031 108.660156 C 26.621094 112.644531 29.417969 115.894531 33.117188 117.53125 L 33.398438 117.660156 C 34.988281 118.320312 36.734375 118.683594 38.570312 118.683594 L 52.714844 118.683594 L 72.203125 75.292969 C 73.671875 72.019531 72.222656 68.203125 68.949219 66.734375 L 54.273438 60.140625 C 53.457031 59.773438 52.601562 59.589844 51.761719 59.570312 Z M 51.761719 59.570312 "/>
<path style=" stroke:none;fill-rule:nonzero;fill:rgb(52.54902%,63.137255%,5.490196%);fill-opacity:1;" d="M 93.652344 45.699219 L 102.976562 57.761719 C 105.164062 60.589844 104.644531 64.65625 101.816406 66.84375 L 75.195312 87.425781 C 72.367188 89.613281 68.300781 89.089844 66.113281 86.261719 L 56.789062 74.199219 C 54.601562 71.371094 55.121094 67.304688 57.949219 65.117188 L 84.570312 44.535156 C 87.398438 42.351562 91.464844 42.871094 93.652344 45.699219 Z M 93.652344 45.699219 "/>
<path style=" stroke:none;fill-rule:nonzero;fill:rgb(59.607843%,71.764706%,6.27451%);fill-opacity:1;" d="M 45.851562 41.601562 L 63.507812 48.800781 C 66.820312 50.148438 68.410156 53.929688 67.058594 57.238281 L 53.238281 91.128906 C 51.890625 94.441406 48.109375 96.03125 44.800781 94.679688 L 27.144531 87.480469 C 23.832031 86.132812 22.242188 82.351562 23.59375 79.042969 L 37.410156 45.152344 C 38.761719 41.839844 42.539062 40.25 45.851562 41.601562 Z M 45.851562 41.601562 "/>
<path style=" stroke:none;fill-rule:nonzero;fill:rgb(60.392157%,67.058824%,30.196078%);fill-opacity:1;" d="M 54.535156 61.132812 C 52.019531 60.941406 49.527344 62.242188 48.296875 64.636719 L 26.324219 107.390625 C 26.015625 107.988281 25.839844 108.617188 25.730469 109.246094 C 27.425781 114.726562 32.519531 118.683594 38.570312 118.683594 L 53.171875 118.683594 L 74.125 77.910156 C 75.765625 74.71875 74.515625 70.832031 71.324219 69.191406 L 57.015625 61.835938 C 56.21875 61.425781 55.375 61.195312 54.535156 61.132812 Z M 54.535156 61.132812 "/>
<path style=" stroke:none;fill-rule:nonzero;fill:rgb(51.372549%,57.647059%,25.490196%);fill-opacity:1;" d="M 30.925781 60.652344 C 28.851562 60.78125 26.882812 61.910156 25.75 63.84375 L 20.09375 73.480469 L 22.40625 88.042969 L 61.375 110.910156 C 64.46875 112.726562 68.417969 111.695312 70.234375 108.601562 L 78.378906 94.722656 C 80.195312 91.628906 79.164062 87.679688 76.070312 85.863281 L 34.609375 61.535156 C 33.449219 60.855469 32.167969 60.574219 30.925781 60.652344 Z M 30.925781 60.652344 "/>
<path style=" stroke:none;fill-rule:nonzero;fill:rgb(69.803922%,82.352941%,14.901961%);fill-opacity:1;" d="M 76.03125 94.449219 L 69.664062 108.300781 C 68.167969 111.550781 64.324219 112.976562 61.078125 111.480469 L 30.503906 97.429688 C 27.253906 95.933594 25.832031 92.089844 27.324219 88.839844 L 33.695312 74.988281 C 35.1875 71.738281 39.03125 70.316406 42.28125 71.808594 L 72.851562 85.859375 C 76.101562 87.355469 77.523438 91.199219 76.03125 94.449219 Z M 76.03125 94.449219 "/>
<path style=" stroke:none;fill-rule:nonzero;fill:rgb(69.803922%,82.352941%,14.901961%);fill-opacity:1;" d="M 97.382812 61.785156 C 94.867188 61.59375 92.371094 62.890625 91.140625 65.285156 L 69.171875 108.042969 C 67.53125 111.234375 68.777344 115.121094 71.96875 116.761719 L 75.710938 118.683594 L 86.863281 118.683594 C 94.308594 118.683594 100.300781 112.695312 100.300781 105.25 L 106.539062 65.917969 L 99.859375 62.488281 C 99.0625 62.078125 98.222656 61.847656 97.382812 61.785156 Z M 97.382812 61.785156 "/>
<path style=" stroke:none;fill-rule:nonzero;fill:url(#radial1);" d="M 14.703125 14.617188 C 12.816406 14.617188 11.300781 16.136719 11.300781 18.019531 L 25.132812 105.25 C 25.132812 112.695312 31.125 118.683594 38.570312 118.683594 L 86.863281 118.683594 C 94.304688 118.683594 100.300781 112.695312 100.300781 105.25 L 114.132812 18.019531 C 114.132812 16.136719 112.613281 14.617188 110.730469 14.617188 Z M 14.703125 14.617188 "/>
</g>
</svg>
